HIERARCHY
ROOT Hips
{
	OFFSET 173.408295 91.952423 -518.280273
	CHANNELS 6 Xposition Yposition Zposition Zrotation Yrotation Xrotation 
	JOINT LeftUpLeg
	{
		OFFSET 0.103459 1.857827 10.548504
		CHANNELS 3 Zrotation Yrotation Xrotation
		JOINT LeftLeg
		{
			OFFSET 43.500008 0.000000 0.000004
			CHANNELS 3 Zrotation Yrotation Xrotation
			JOINT LeftFoot
			{
				OFFSET 42.372192 0.000011 0.000000
				CHANNELS 3 Zrotation Yrotation Xrotation
				JOINT LeftToe
				{
					OFFSET 17.299973 -0.000013 -0.000010
					CHANNELS 3 Zrotation Yrotation Xrotation
					End Site
					{
						OFFSET 0.000000 0.000000 0.000000
					}
				}
			}
		}
	}
	JOINT RightUpLeg
	{
		OFFSET 0.103454 1.857830 -10.548500
		CHANNELS 3 Zrotation Yrotation Xrotation
		JOINT RightLeg
		{
			OFFSET 43.500038 -0.000038 0.000004
			CHANNELS 3 Zrotation Yrotation Xrotation
			JOINT RightFoot
			{
				OFFSET 42.372253 0.000019 0.000024
				CHANNELS 3 Zrotation Yrotation Xrotation
				JOINT RightToe
				{
					OFFSET 17.299988 -0.000007 0.000004
					CHANNELS 3 Zrotation Yrotation Xrotation
					End Site
					{
						OFFSET 0.000000 0.000000 0.000000
					}
				}
			}
		}
	}
	JOINT Spine
	{
		OFFSET 6.901963 -2.603744 0.000004
		CHANNELS 3 Zrotation Yrotation Xrotation
		JOINT Spine1
		{
			OFFSET 12.588104 0.000008 -0.000010
			CHANNELS 3 Zrotation Yrotation Xrotation
			JOINT Spine2
			{
				OFFSET 12.343202 -0.000005 0.000010
				CHANNELS 3 Zrotation Yrotation Xrotation
				JOINT Neck
				{
					OFFSET 25.832897 0.000000 0.000001
					CHANNELS 3 Zrotation Yrotation Xrotation
					JOINT Head
					{
						OFFSET 11.766611 -0.000006 -0.000000
						CHANNELS 3 Zrotation Yrotation Xrotation
						End Site
						{
							OFFSET 0.000000 0.000000 0.000000
						}
					}
				}
				JOINT LeftShoulder
				{
					OFFSET 19.745899 -1.480366 6.000108
					CHANNELS 3 Zrotation Yrotation Xrotation
					JOINT LeftArm
					{
						OFFSET 11.284111 -0.000018 -0.000015
						CHANNELS 3 Zrotation Yrotation Xrotation
						JOINT LeftForeArm
						{
							OFFSET 33.000050 -0.000005 0.000028
							CHANNELS 3 Zrotation Yrotation Xrotation
							JOINT LeftHand
							{
								OFFSET 25.200012 0.000000 0.000002
								CHANNELS 3 Zrotation Yrotation Xrotation
								End Site
								{
									OFFSET 0.000000 0.000000 0.000000
								}
							}
						}
					}
				}
				JOINT RightShoulder
				{
					OFFSET 19.746111 -1.480335 -6.000074
					CHANNELS 3 Zrotation Yrotation Xrotation
					JOINT RightArm
					{
						OFFSET 11.284151 0.000036 0.000001
						CHANNELS 3 Zrotation Yrotation Xrotation
						JOINT RightForeArm
						{
							OFFSET 33.000092 -0.000035 0.000022
							CHANNELS 3 Zrotation Yrotation Xrotation
							JOINT RightHand
							{
								OFFSET 25.199768 0.000178 0.000417
								CHANNELS 3 Zrotation Yrotation Xrotation
								End Site
								{
									OFFSET 0.000000 0.000000 0.000000
								}
							}
						}
					}
				}
			}
		}
	}
}
MOTION
Frames: 10
Frame Time: 0.033333
-16.344498 -18.983952 8.118197 80.179382 -54.872963 -140.153687 89.040451 85.230614 16.768406 136.013397 47.030907 -51.389019 -118.480278 -23.229151 -72.146332 21.454525 0.003092 0.000001 44.715363 -48.783813 17.391077 154.859344 12.130096 13.870765 132.398010 -57.543289 146.967789 21.456160 -0.003104 -0.000018 13.194437 -3.332698 4.507510 9.290686 -3.996271 10.779441 13.981641 -7.153883 16.780851 177.220383 -60.862919 124.008690 155.823044 12.656992 -77.727463 0.527903 -61.121742 -130.306488 -6.711388 -39.591114 -57.081490 122.730164 17.702375 -56.533478 -14.720534 -23.083586 131.929626 141.486084 55.922287 -33.645905 83.920326 -29.944969 -125.592743 -18.125095 -39.658653 -74.439041 -39.182411 2.754754 -106.148346 
-16.040850 -19.908470 7.552400 77.494911 -53.811089 -135.569473 97.255981 87.288177 25.763950 134.230835 46.837898 -51.376678 -117.702133 -21.136820 -78.134071 21.454542 0.003092 0.000001 61.302776 -56.609306 -4.645002 150.187317 12.319486 12.313674 130.337006 -55.572155 150.395050 21.456158 -0.003104 -0.000018 12.190707 -3.614720 3.315667 8.285830 -4.308640 8.268788 13.647175 -7.182727 14.220759 -176.699371 -61.628799 113.441849 154.315369 13.649570 -78.240021 -0.186262 -62.857182 -131.927399 -14.300708 -39.521889 -48.907627 125.491028 18.651409 -57.473568 -14.833707 -23.354290 132.759506 141.073441 55.519142 -33.849102 91.435120 -28.019655 -126.026138 -19.840530 -30.561834 -78.505173 -39.349281 3.310761 -107.509094 
-15.834944 -20.859264 7.097383 75.585045 -52.347534 -132.037979 135.736801 88.323448 64.743256 133.948547 45.734783 -49.953632 -115.910187 -19.514999 -82.387161 21.454561 0.003092 -0.000000 81.247879 -59.672703 -30.703062 146.162460 12.339932 11.373851 128.768021 -55.207558 152.537399 21.456141 -0.003104 -0.000018 11.305822 -3.871010 1.959563 7.884901 -4.615971 5.666111 13.777105 -7.299050 11.602792 -170.498901 -62.074867 102.485634 152.819580 14.949428 -78.387642 -0.896359 -64.626434 -133.421860 -21.728920 -38.722469 -40.395287 128.032059 19.715363 -57.900578 -14.843164 -23.397406 133.514038 140.428757 55.079803 -34.156769 99.331917 -26.222797 -126.469376 -23.457436 -21.085695 -81.300087 -39.521671 4.004653 -108.615013 
-15.690447 -21.689341 6.787951 74.593132 -50.783630 -130.498611 156.652084 87.515404 85.655365 134.494247 44.317368 -48.453030 -113.106468 -18.640026 -82.795090 21.454580 0.003092 -0.000000 96.463295 -60.065693 -52.058529 143.019470 12.097322 11.630723 127.643700 -56.158112 153.846756 21.456131 -0.003105 -0.000018 10.663908 -3.975090 0.703476 8.086116 -5.000016 3.145151 14.286488 -7.656140 9.080798 -164.043304 -62.148975 91.469803 151.250031 16.492516 -78.390190 -2.005272 -66.425735 -134.368942 -28.520582 -37.308067 -32.228329 130.185501 20.882151 -57.919716 -14.748053 -23.368198 134.321884 139.386810 54.591412 -34.685120 107.289169 -24.593023 -127.095253 -28.044283 -11.686115 -83.271370 -39.922031 4.768335 -109.487373 
-15.572317 -22.235798 6.614056 74.428810 -49.604633 -130.290771 150.814514 86.041046 79.528488 135.523865 43.059620 -46.971672 -109.758347 -18.279955 -80.074196 21.454596 0.003092 -0.000000 107.177216 -60.169331 -68.611031 141.241440 11.845416 12.871365 128.969055 -59.714996 152.704300 21.456120 -0.003105 -0.000019 10.160865 -3.955036 -0.570103 8.758582 -5.376553 0.500224 15.053000 -8.088488 6.457540 -157.651733 -62.083710 80.997261 149.736923 17.941662 -78.381058 -3.533661 -68.178291 -134.720917 -34.307739 -35.342724 -24.973120 131.990646 22.027857 -57.709427 -14.930013 -23.553885 135.399933 138.312897 54.116982 -35.079582 114.864571 -22.921885 -127.901764 -32.527187 -2.883408 -84.747238 -40.783394 5.666001 -109.876991 
-15.405463 -22.787312 6.531112 74.526382 -49.130848 -130.475739 142.716187 83.966156 70.794792 136.198685 41.918324 -46.092278 -107.242302 -18.653534 -75.314049 21.454615 0.003093 -0.000000 115.934761 -60.927540 -82.355476 140.456192 11.294623 14.360151 136.229706 -64.980904 146.248383 21.456112 -0.003105 -0.000019 9.555021 -4.026237 -1.879038 9.846632 -5.613712 -2.263950 16.020456 -8.279610 3.793608 -151.478668 -61.532295 71.286415 148.165421 19.512762 -78.212784 -5.561747 -69.777000 -134.359756 -38.863022 -33.086834 -18.897835 133.759598 23.338923 -57.359627 -15.548622 -23.840784 136.801804 137.366699 53.485867 -35.249786 121.777664 -21.163906 -128.779556 -36.318100 5.172833 -85.455681 -42.164448 6.910168 -109.662170 
-15.173397 -23.350285 6.433529 74.489037 -49.643005 -131.130356 135.182434 81.248055 62.376793 136.736084 41.140705 -45.344406 -105.732811 -19.450939 -68.938797 21.454638 0.003093 0.000000 120.036514 -63.915829 -90.081215 139.359619 10.750264 16.885349 147.134018 -68.761002 137.020935 21.456114 -0.003105 -0.000019 8.854645 -3.979392 -3.130880 11.177767 -5.491160 -4.800857 17.111399 -8.061005 1.509559 -146.264526 -60.443115 63.559498 146.338791 21.611155 -77.827248 -8.332468 -71.403999 -133.226410 -42.208462 -30.780632 -14.175081 135.405945 24.712564 -56.811516 -16.386457 -24.285475 138.418823 136.107651 52.839520 -35.551022 128.087585 -19.291904 -129.547470 -39.620880 12.106873 -85.577065 -43.334965 7.749722 -109.330200 
-14.928246 -23.748192 6.388564 73.617989 -51.204426 -130.999359 131.638443 78.826981 58.542950 137.159378 40.130463 -44.493267 -105.610588 -19.639374 -62.727028 21.454662 0.003094 -0.000001 125.121544 -68.849182 -97.374283 136.346039 10.953924 17.245028 151.126404 -69.935127 134.149887 21.456100 -0.003105 -0.000018 8.036884 -3.574746 -4.196133 12.498652 -4.979023 -7.286463 18.141155 -7.552987 -1.032390 -141.640472 -58.873501 56.990929 144.298920 24.230301 -77.294128 -10.929747 -72.551781 -132.031494 -44.556789 -28.531830 -10.085829 137.199417 26.257246 -56.450832 -17.128443 -24.576136 140.072235 134.845932 52.083179 -35.755951 133.751373 -17.361311 -130.106415 -42.180763 17.602856 -85.036461 -44.194233 8.275193 -109.088387 
-14.729210 -24.136341 6.467207 71.293739 -52.970924 -128.956741 129.476334 77.374680 56.960716 136.942795 38.499088 -43.916306 -105.675827 -19.218298 -57.432587 21.454699 0.003094 -0.000001 132.015030 -74.957458 -105.704437 133.133087 11.362484 16.568346 155.009857 -71.428185 130.352982 21.456100 -0.003105 -0.000018 6.705329 -3.187582 -5.498906 13.483541 -3.954495 -9.767779 19.115015 -6.291822 -3.359250 -138.754654 -57.322819 52.544285 142.013657 27.387821 -76.722694 -13.200145 -73.893631 -131.247406 -46.033039 -26.755644 -6.832841 138.875717 27.465185 -56.111786 -17.329512 -24.377182 141.544632 133.518143 51.343399 -35.923298 138.947784 -15.474185 -130.392654 -43.853100 21.784813 -83.465111 -44.621391 8.689820 -109.267715 
-14.641352 -24.645979 6.549217 67.595039 -54.824726 -125.254639 125.989372 76.646828 54.720783 136.406082 36.233791 -43.312599 -105.517677 -17.203768 -53.562927 21.454731 0.003095 -0.000001 144.204819 -82.104332 -118.115128 129.541885 12.031737 14.964667 157.756714 -72.692970 127.146263 21.456074 -0.003105 -0.000018 5.371356 -2.929046 -6.874219 13.955885 -2.581841 -12.113288 19.779654 -4.510761 -5.441678 -136.764526 -56.136742 49.432632 139.581772 30.826279 -76.332848 -15.211483 -74.929367 -130.519501 -47.179005 -25.237015 -3.920193 140.596924 28.565420 -55.462082 -17.243902 -24.166729 142.769897 131.802170 50.532967 -36.313889 143.718613 -13.549713 -130.278336 -44.702354 24.631563 -81.096069 -44.641171 8.857460 -109.934799 
